<?xml version="1.0" encoding="UTF-8" standalone="no"?>
<!-- Created with Inkscape (http://www.inkscape.org/) -->

<svg
   xmlns:dc="http://purl.org/dc/elements/1.1/"
   xmlns:cc="http://creativecommons.org/ns#"
   xmlns:rdf="http://www.w3.org/1999/02/22-rdf-syntax-ns#"
   xmlns:svg="http://www.w3.org/2000/svg"
   xmlns="http://www.w3.org/2000/svg"
   xmlns:sodipodi="http://sodipodi.sourceforge.net/DTD/sodipodi-0.dtd"
   xmlns:inkscape="http://www.inkscape.org/namespaces/inkscape"
   width="340"
   height="800"
   viewBox="0 0 89.958331 211.66667"
   version="1.1"
   id="svg8"
   sodipodi:docname="bomba.svg"
   inkscape:version="0.92.1 r15371">
  <defs
     id="defs2">
    <clipPath
       clipPathUnits="userSpaceOnUse"
       id="clipPath5025">
      <rect
         style="fill:#ffffff;stroke-width:0.67226851"
         id="rect5027"
         width="118.12717"
         height="118.12717"
         x="-304.24176"
         y="-56.759819"
         ry="59.063587" />
    </clipPath>
  </defs>
  <sodipodi:namedview
     id="base"
     pagecolor="#ffffff"
     bordercolor="#666666"
     borderopacity="1.0"
     inkscape:pageopacity="0.0"
     inkscape:pageshadow="2"
     inkscape:zoom="0.7"
     inkscape:cx="-121.91438"
     inkscape:cy="323.53026"
     inkscape:document-units="px"
     inkscape:current-layer="layer1"
     showgrid="false"
     units="px"
     showguides="true"
     inkscape:guide-bbox="true"
     inkscape:window-width="1680"
     inkscape:window-height="988"
     inkscape:window-x="-8"
     inkscape:window-y="-8"
     inkscape:window-maximized="1" />
  <metadata
     id="metadata5">
    <rdf:RDF>
      <cc:Work
         rdf:about="">
        <dc:format>image/svg+xml</dc:format>
        <dc:type
           rdf:resource="http://purl.org/dc/dcmitype/StillImage" />
        <dc:title></dc:title>
      </cc:Work>
    </rdf:RDF>
  </metadata>
  <g
     inkscape:label="Camada 1"
     inkscape:groupmode="layer"
     id="layer1"
     transform="translate(0,-85.333316)">
    <path
       style="fill:#aa0000;fill-opacity:1;stroke:none;stroke-width:0.08000392px;stroke-linecap:butt;stroke-linejoin:miter;stroke-opacity:1"
       d="m 30.573173,134.69382 c -3.294208,1.21861 -8.000392,6.85748 -8.000392,6.85748 v 57.14566 l 3.200157,11.8863 v 73.13231 l -3.200157,5.7287 v 7.54322 h 64.003136 v -7.54322 l -3.200156,-5.7287 v -73.13231 l 3.200156,-11.8863 V 141.5513 c 0,0 -4.706184,-5.63887 -8.000391,-6.85748 -5.067803,-1.8747 -10.475635,-3.11632 -15.99384,-3.72485 l -0.007,-6.33278 h -16.00072 l 0.01844,6.32998 c -5.527003,0.60752 -10.943654,1.85008 -16.019233,3.72765 z"
       id="path10"
       inkscape:connector-curvature="0"
       sodipodi:nodetypes="sccccccccccccsccccs" />
    <path
       style="fill:#ffffff;stroke:none;stroke-width:0.21822859"
       d="m 34.513338,141.5513 h 40.122025 c 2.182851,0 3.940164,1.75731 3.940164,3.94016 v 49.26533 c 0,2.18285 -1.757313,3.94017 -3.940164,3.94017 H 34.513338 c -2.182851,0 -3.940164,-1.75732 -3.940164,-3.94017 v -49.26533 c 0,-2.18285 1.757313,-3.94016 3.940164,-3.94016 z"
       id="rect44" />
    <rect
       style="fill:#aa0000;fill-opacity:1;stroke-width:0.23509353;stroke:none"
       id="rect72"
       width="41.309296"
       height="41.309296"
       x="33.387062"
       y="85.770653"
       ry="20.654648" />
    <path
       style="fill:#b3b3b3;stroke-width:0.05097023;stroke:none"
       id="path4880"
       sodipodi:type="arc"
       sodipodi:cx="54.749172"
       sodipodi:cy="149.80736"
       sodipodi:rx="4.5145063"
       sodipodi:ry="4.5145063"
       sodipodi:start="4.5241674"
       sodipodi:end="4.4890289"
       d="m 53.904453,145.37258 a 4.5145063,4.5145063 0 0 1 5.271901,3.55113 4.5145063,4.5145063 0 0 1 -3.504681,5.3029 4.5145063,4.5145063 0 0 1 -5.333475,-3.45797 4.5145063,4.5145063 0 0 1 3.410977,-5.36364"
       sodipodi:open="true" />
    <path
       style="fill:#b3b3b3;stroke:none;stroke-width:0.03955692px;stroke-linecap:butt;stroke-linejoin:miter;stroke-opacity:1"
       d="M 49.955395,147.1819 H 31.548378 l 2.773184,1.86546 0.935951,1.63515 2.114553,0.78303 1.247934,0.96728 h 11.404724 c -0.557299,-1.69201 -0.64875,-3.11687 -0.06933,-5.25092 z"
       id="path4882"
       inkscape:connector-curvature="0"
       sodipodi:nodetypes="cccccccc" />
    <path
       style="fill:#b3b3b3;stroke:none;stroke-width:0.03955692px;stroke-linecap:butt;stroke-linejoin:miter;stroke-opacity:1"
       d="m 59.323546,147.1819 h 18.40702 l -2.773187,1.86546 -0.935951,1.63515 -2.114552,0.78303 -1.247932,0.96728 H 59.25422 c 0.557296,-1.69201 0.648747,-3.11688 0.06933,-5.25092 z"
       id="path4882-8"
       inkscape:connector-curvature="0"
       sodipodi:nodetypes="cccccccc" />
    <rect
       style="fill:#ffffff;stroke-width:0.20327856;stroke:none"
       id="rect72-1"
       width="35.718941"
       height="35.718941"
       x="36.25198"
       y="88.490608"
       ry="17.859472" />
    <rect
       style="fill:#0000ff;fill-opacity:1;stroke-width:0.25826579;stroke:none"
       id="rect4921"
       width="119.68954"
       height="33.675961"
       x="-305.02295"
       y="-14.534214"
       ry="0"
       clip-path="url(#clipPath5025)"
       transform="matrix(0.30237703,0,0,0.30237703,128.2477,105.65347)" />
    <text
       xml:space="preserve"
       style="font-style:normal;font-variant:normal;font-weight:bold;font-stretch:normal;font-size:11.96862793px;line-height:1.25;font-family:Arial;-inkscape-font-specification:'Arial, Bold';font-variant-ligatures:normal;font-variant-caps:normal;font-variant-numeric:normal;font-feature-settings:normal;text-align:start;letter-spacing:0px;word-spacing:0px;writing-mode:lr-tb;text-anchor:start;fill:#ffffff;fill-opacity:1;stroke:none;stroke-width:0.29921788;"
       x="41.137646"
       y="110.63084"
       id="text3761"><tspan
         sodipodi:role="line"
         id="tspan3759"
         x="41.137646"
         y="110.63084"
         style="font-style:normal;font-variant:normal;font-weight:bold;font-stretch:normal;font-size:11.96862793px;font-family:Arial;-inkscape-font-specification:'Arial, Bold';font-variant-ligatures:normal;font-variant-caps:normal;font-variant-numeric:normal;font-feature-settings:normal;text-align:start;writing-mode:lr-tb;text-anchor:start;fill:#ffffff;stroke-width:0.29921788;stroke:none;">GAS</tspan></text>
    <path
       style="fill:#ff0000;stroke:none;stroke-width:0.08000392px;stroke-linecap:butt;stroke-linejoin:miter;stroke-opacity:1"
       d="m 30.573172,134.69382 c -3.294207,1.21861 -8.000391,6.85748 -8.000391,6.85748 v 57.14566 l 3.200156,11.8863 v 73.13231 l -3.200156,5.7287 v 7.54322 l 4.13248,0.007 0.0196,-7.43629 2.432455,-5.82868 0.398637,-73.26132 -2.818046,-11.54978 0.411199,-56.45282 3.424072,-7.77171 z"
       id="path10-0"
       inkscape:connector-curvature="0"
       sodipodi:nodetypes="ccccccccccccccc" />
    <path
       style="fill:#800000;fill-opacity:1;stroke:none;stroke-width:0.08000392px;stroke-linecap:butt;stroke-linejoin:miter;stroke-opacity:1"
       d="m 83.344907,296.86627 3.23101,0.12122 v -7.54322 l -3.200156,-5.7287 v -73.13231 l 3.200156,-11.8863 V 141.5513 c 0,0 -4.706184,-5.63887 -8.000391,-6.85748 l 4.80191,7.39867 0.318195,56.36032 -3.164957,12.16476 -0.508516,73.22316 3.323284,5.78769 z"
       id="path10-7"
       inkscape:connector-curvature="0"
       sodipodi:nodetypes="cccccccccccccc" />
    <path
       id="rect72-6"
       style="fill:#ff0000;fill-opacity:1;stroke-width:0.23509353;stroke:none"
       d="m 47.187437,87.005648 c -8.056206,2.813434 -13.805315,10.460954 -13.805315,19.500542 0,8.80632 5.456215,16.29139 13.18629,19.273 0.08227,0.0317 -0.05879,5.15627 0.02399,5.18698 l 0.403892,-3.60037 0.260375,-2.32105 -0.682706,-0.24855 C 26.622942,113.2691 35.153212,93.466835 45.848769,88.067859 Z"
       inkscape:connector-curvature="0"
       sodipodi:nodetypes="csscccccc" />
    <path
       sodipodi:nodetypes="cscccccscc"
       inkscape:connector-curvature="0"
       d="m 60.841198,87.005648 c 8.056207,2.808262 13.805316,10.441722 13.805316,19.464692 0,8.35633 -4.837567,15.73442 -12.058832,18.76449 l -0.006,5.73414 -0.781608,-3.65717 -1.028131,-2.33698 0.682707,-0.2481 c 0.370058,-0.21341 0.730316,-0.42967 1.080944,-0.64862 C 81.0885,112.49252 72.677033,93.354999 62.17986,88.065906 Z"
       style="fill:#800000;fill-opacity:1;stroke-width:0.23487735;stroke:none"
       id="path4996" />
    <path
       style="fill:#000000;stroke:none;stroke-width:0.03416636px;stroke-linecap:butt;stroke-linejoin:miter;stroke-opacity:1"
       d="m 11.048113,155.90827 -9.5864523,13.23121 2.9398108,7.81824 4.162104,1.7223 7.2059035,-4.65948 1.744401,-6.81629 -1.20412,-3.25087 -0.359249,-4.25226 7.976834,-6.60961 1.268908,-2.39749 -1.247303,-2.02819 z"
       id="path5120"
       inkscape:connector-curvature="0"
       sodipodi:nodetypes="cccccccccccc" />
    <path
       style="fill:none;stroke:#000000;stroke-width:4.00019646;stroke-linecap:round;stroke-linejoin:miter;stroke-miterlimit:4;stroke-dasharray:none;stroke-opacity:1"
       d="m 6.3810048,174.46678 c 0,0 -1.3111419,7.2046 -2.0572436,10.40051 -2.0254393,8.67589 9.4142218,12.46811 10.0576418,21.94393 0.753692,11.09984 6.162649,10.19567 -1.371495,22.85826 -5.9358735,9.9764 -9.1601875,17.12588 -9.6004733,26.51559 -0.3981776,8.4917 0.3650822,18.65169 6.4003167,24.68692 8.6584506,8.65845 15.0900626,8.68976 16.9151106,8.68614"
       id="path5124"
       inkscape:connector-curvature="0"
       sodipodi:nodetypes="csssasc" />
  </g>
</svg>
