<?xml version="1.0" encoding="UTF-8" standalone="no"?>
<!-- Created with Inkscape (http://www.inkscape.org/) -->

<svg
   xmlns:dc="http://purl.org/dc/elements/1.1/"
   xmlns:cc="http://creativecommons.org/ns#"
   xmlns:rdf="http://www.w3.org/1999/02/22-rdf-syntax-ns#"
   xmlns:svg="http://www.w3.org/2000/svg"
   xmlns="http://www.w3.org/2000/svg"
   xmlns:sodipodi="http://sodipodi.sourceforge.net/DTD/sodipodi-0.dtd"
   xmlns:inkscape="http://www.inkscape.org/namespaces/inkscape"
   width="220"
   height="110"
   viewBox="0 0 58.208333 29.104167"
   version="1.1"
   id="svg8"
   inkscape:version="0.92.1 r15371"
   sodipodi:docname="2_0.svg">
  <defs
     id="defs2" />
  <sodipodi:namedview
     id="base"
     pagecolor="#ffffff"
     bordercolor="#666666"
     borderopacity="1.0"
     inkscape:pageopacity="0.0"
     inkscape:pageshadow="2"
     inkscape:zoom="2.8284271"
     inkscape:cx="165.28065"
     inkscape:cy="41.881475"
     inkscape:document-units="mm"
     inkscape:current-layer="layer1"
     showgrid="false"
     units="px"
     inkscape:window-width="1680"
     inkscape:window-height="988"
     inkscape:window-x="-8"
     inkscape:window-y="-8"
     inkscape:window-maximized="1" />
  <metadata
     id="metadata5">
    <rdf:RDF>
      <cc:Work
         rdf:about="">
        <dc:format>image/svg+xml</dc:format>
        <dc:type
           rdf:resource="http://purl.org/dc/dcmitype/StillImage" />
        <dc:title></dc:title>
      </cc:Work>
    </rdf:RDF>
  </metadata>
  <g
     inkscape:label="Camada 1"
     inkscape:groupmode="layer"
     id="layer1"
     transform="translate(0,-267.89581)">
    <path
       style="fill:#ffa500;fill-opacity:1;stroke:none;stroke-width:0.26458333;stroke-linecap:round;stroke-linejoin:round;stroke-miterlimit:4;stroke-dasharray:none;stroke-opacity:1;paint-order:markers stroke fill"
       d="m 3.6543554,282.30025 c 1.388859,-3.79655 4.280097,-7.81028 10.5303096,-10.34768 3.59038,-1.45759 7.883158,-1.35776 9.170693,2.50603 1.95825,5.87657 -12.283797,11.10217 -14.7164556,16.42039 9.5295566,-3.1366 14.4840166,-1.20045 19.5449316,0.81119 l -3.207527,5.10829 c -9.039449,-3.51561 -14.885483,-2.78326 -24.7372256,-0.59399 0.230962,-4.63522 18.3474426,-15.84237 17.3582606,-19.76555 -0.989182,-3.92317 -11.2959136,1.96425 -13.9429866,5.86132 z"
       id="path4503"
       inkscape:connector-curvature="0"
       sodipodi:nodetypes="csscccczc" />
    <path
       style="fill:#ffa500;fill-opacity:1;stroke:none;stroke-width:0.26458333;stroke-linecap:butt;stroke-linejoin:round;stroke-miterlimit:4;stroke-dasharray:none;stroke-opacity:1;paint-order:markers stroke fill"
       d="m 45.593487,274.29307 c -14.231818,6.23341 -10.796592,20.67384 -1.28886,22.31949 9.507728,1.64564 16.044635,-8.16276 12.473718,-17.70081 -3.570917,-9.53805 -13.780489,-10.45416 -13.780489,-10.45416 l -7.484234,2.13835 c 0,0 15.43094,2.3084 17.582003,9.02859 2.15107,6.7202 -0.588264,14.46771 -8.078215,13.42411 -7.489955,-1.04362 -7.544427,-10.88428 0.576077,-18.75557 z"
       id="path4491"
       inkscape:connector-curvature="0"
       sodipodi:nodetypes="czzcczzc" />
    <circle
       style="opacity:1;fill:#ffa500;fill-opacity:1;stroke:none;stroke-width:0.26458333;stroke-linecap:round;stroke-linejoin:round;stroke-miterlimit:4;stroke-dasharray:none;stroke-dashoffset:0;stroke-opacity:1;paint-order:markers stroke fill"
       id="path4493"
       cx="32.432102"
       cy="291.59949"
       r="3.266927" />
  </g>
</svg>
