<?xml version="1.0" encoding="UTF-8" standalone="no"?>
<svg
   xmlns:dc="http://purl.org/dc/elements/1.1/"
   xmlns:cc="http://creativecommons.org/ns#"
   xmlns:rdf="http://www.w3.org/1999/02/22-rdf-syntax-ns#"
   xmlns:svg="http://www.w3.org/2000/svg"
   xmlns="http://www.w3.org/2000/svg"
   xmlns:sodipodi="http://sodipodi.sourceforge.net/DTD/sodipodi-0.dtd"
   xmlns:inkscape="http://www.inkscape.org/namespaces/inkscape"
   width="702.95801"
   height="721.474"
   viewBox="0 0 185990.98 190899.84"
   version="1.1"
   id="svg53"
   sodipodi:docname="brasil2.svg"
   inkscape:version="0.92.1 r15371">
  <metadata
     id="metadata57">
    <rdf:RDF>
      <cc:Work
         rdf:about="">
        <dc:format>image/svg+xml</dc:format>
        <dc:type
           rdf:resource="http://purl.org/dc/dcmitype/StillImage" />
        <dc:title></dc:title>
      </cc:Work>
    </rdf:RDF>
  </metadata>
  <sodipodi:namedview
     pagecolor="#ffffff"
     bordercolor="#666666"
     borderopacity="1"
     objecttolerance="10"
     gridtolerance="10"
     guidetolerance="10"
     inkscape:pageopacity="0"
     inkscape:pageshadow="2"
     inkscape:window-width="1680"
     inkscape:window-height="988"
     id="namedview55"
     showgrid="false"
     units="px"
     inkscape:zoom="0.91036961"
     inkscape:cx="816.60644"
     inkscape:cy="382.53951"
     inkscape:window-x="-8"
     inkscape:window-y="-8"
     inkscape:window-maximized="1"
     inkscape:current-layer="svg53" />
  <defs
     id="defs">
    <style
       type="text/css"
       id="style">
    .str0 {stroke:#ffffff;stroke-width:560} <!-- Contorno países -->

    .str1 {stroke:#ffffff;stroke-width:280} <!-- Contorno estados -->

    .fil0 {fill:none}

    .RegiaoNorte {fill:#98db11} <!-- Região Norte -->

    .RegiaoNordeste {fill:#5599ff} <!-- Região Nordeste -->

    .RegiaoCentroOeste {fill:#ffd42a} <!-- Região Centro-Oeste -->

    .RegiaoSudeste {fill:#ff0000} <!-- Região Sudeste -->

    .RegiaoSul {fill:#ff9900} <!-- Região Sul -->
</style>
  </defs>
  <path
     style="fill:#ffa500;fill-opacity:1;stroke:none;stroke-width:280"
     d="m 65435.933,156.58767 c -633.019,740.21347 -2012.469,35.46907 -2315.223,386.04284 1002.635,916.22569 8.808,2263.95649 -996.89,2507.98669 -27.296,921.3158 -1283.621,1007.6866 -1865.1,674.9289 402.193,804.4902 -830.252,192.3586 -1027.898,964.8487 -120.725,884.7395 -1355.001,94.2513 -1544.169,868.2088 -463.381,399.411 -740.189,-233.4875 -1156.58,192.7631 -500.785,589.303 -1667.758,-759.3647 -1962.254,0 -206.433,377.1944 -255.461,565.6573 -1157.096,482.1661 -491.595,424.9205 497.374,1591.5318 -160.721,1607.7368 -375.093,-388.6202 -1195.976,1059.5728 -1318.334,-31.5244 -95.882,-582.9447 -1092.208,-601.4218 -900.767,-1254.2516 -721.633,-139.8191 -831.708,23.3613 -995.856,482.1659 -374.296,453.1681 -723.959,-759.1373 -1060.973,-579.3227 291.083,682.7626 -1191.901,-21.952 -1414.972,418.0839 -456.517,-1235.3306 -1657.335,-1300.3127 -2861.989,-1060.9717 -1184.167,-1642.72 -1209.164,-164.6048 -289.403,610.8467 576.025,1061.3863 2815.999,1671.2345 1993.262,2958.1117 -374.95,1856.5776 2003.814,2864.5856 804.128,4309.0026 644.241,640.711 2330.152,410.271 3150.874,450.125 265.904,1203.424 -143.787,1381.23 -1060.973,1576.213 -351.215,759.929 -1424.212,115.406 -2089.901,835.651 330.384,1167.518 -624.546,1728.904 -1254.253,2506.953 -535.759,516.28 151.154,-1179.818 -706.969,-320.927 -534.041,413.92 -1229.635,1528.964 -1639.779,836.167 -448.558,211.009 -731.068,742.039 -1125.053,772.086 -785.03,-219.73 -214.016,1653.12 -1158.13,963.815 -471.279,304.787 -582.995,1951.79 -1349.857,1060.972 1266.773,-1773.898 -1257.482,-1577.728 -2026.337,-386.043 -1613.827,1205.803 -3483.3,-2709.791 -5048.016,-1960.705 60.059,-1300.768 253.971,-3051.439 -1028.93,-3537.434 52.716,-2328.825 -988.614,-1124.311 -1896.623,-449.608 -733.005,207.352 -1410.336,1574.176 -2058.377,192.763 -958.402,117.279 -431.999,1158.603 -127.649,1222.211 -2875.996,247.127 -5985.957,-413.074 -7974.084,64.082 98.798,1238.78 -414.716,3377.746 674.929,3118.833 1023.739,-85.093 2461.532,-194.031 2507.987,867.693 20.252,513.226 376.115,1292.191 -193.28,1415.49 -573.625,263.614 -877.993,-751.721 -1510.58,-418.084 -644.107,382.671 -1644.352,558.747 -2315.224,739.011 -251.612,1429.307 -599.927,4306.894 1317.817,4758.611 1346.789,508.024 168.039,1622.57 1029.448,2251.141 1389.163,1525.325 -265.048,4541.799 -322.013,7017.689 -840.216,3181.188 -669.581,7131.912 -2090.368,9894.297 -367.903,-941.516 -808.77,554.632 -1028.93,-352.967 -304.286,-77.866 -284.965,-942.59 -867.693,-610.849 -465.915,191.29 -425.945,1.519 -964.331,64.083 88.995,-209.122 -383.434,107.566 -868.726,160.721 -349.002,1014.238 -1135.319,912.122 -1672.336,932.292 -462.553,-37.113 -602.003,370.819 -1511.096,289.919 44.984,153.22 -833.209,424.038 -610.847,192.764 -1003.154,-156.62 -1497.6636,416.46 -2218.0672,964.332 -752.5974,435.018 -1420.582,662.886 -1735.9009,1093.013 -506.7239,517.501 -1461.3345,751.757 -1993.7798,1318.849 29.3242,848.906 -485.9141,1904.958 -579.3227,2636.151 -1163.9404,765.889 -1350.1563,2279.275 -545.7312,3408.755 -198.8963,1309.842 -3210.7943,919.937 -2894.0294,2926.069 -728.17665,706.802 724.1212,1673.507 -642.88797,1703.859 -810.113781,-448.941 -133.23191,765.588 -515.24062,964.332 532.17893,632.254 1863.16479,1210.285 1028.93089,1607.739 452.3118,461.06 908.3041,1544.069 1254.2517,2410.828 1073.9913,253.851 758.8253,1351.265 1768.9754,1672.337 298.4352,953.227 1216.5666,1373.121 545.7312,2314.705 -502.4712,284.064 -1681.7037,1386.713 68.3626,997.406 1469.4833,86.24 2111.5107,284.487 3340.9076,642.889 -120.1482,995.501 737.4056,1200.085 513.6902,1961.741 565.7761,683.906 3466.5162,213.834 4566.3652,128.162 752.926,-980.12 1787.139,-1272.843 2218.067,-2024.786 454.832,-260.913 1451.158,-1084.162 996.889,-193.28 -659.396,100.341 459.263,1130.787 -418.083,1511.098 241.465,1712.868 -707.33,5337.926 578.806,5561.704 1127.529,1236.163 2035.064,-335.324 3151.391,-159.69 1259.37,330.836 2208.325,-196.315 3246.998,192.764 627.191,253.939 1529.622,20.663 1864.582,289.403 127.614,976.406 2035.784,47.543 2507.987,-579.324 447.695,-1107.28 1478.832,-1743.102 2347.263,-964.848 255.334,-858.926 1588.122,-1448.584 1961.738,-1799.984 931.612,-25.01 1726.477,-660.926 2122.462,-1286.291 718.863,-562.21 1783.395,-787.017 417.566,-1607.739 1048.471,10.783 1684.959,-1320.987 1993.265,-1640.292 657.796,65.845 2247.195,-288.08 2668.706,836.166 453.39,-636.485 1061.947,-978.109 1704.378,-577.771 -607.986,-972.084 1588.844,-1371.419 1157.612,-193.28 1091.841,108.458 1117.057,-1282.393 1511.097,-2025.821 833.804,-49.829 1746.708,-128.835 2636.151,-321.961 464.632,804.742 971.735,-557.162 900.765,-1125.054 722.312,-244.813 930.667,-733.425 804.128,-1414.974 -361.391,-1010.906 1341.814,-120.336 1060.971,-1221.176 533.549,-1580.094 2852.069,-1084.829 4307.969,-804.126 860.528,321.67 904.84,1710.638 1576.213,1672.335 979.501,-244.962 429.189,1959.848 1157.095,1093.013 412.586,398.914 795.08,1741.244 1801.017,1317.817 39.816,-754.49 988.047,-1002.473 1317.817,-256.847 5023.575,-104.362 10150.596,234.02 15112.001,-97.155 483.755,-454.543 -381.144,-345.968 -64.082,-1221.178 509.632,-1114.932 659.688,-2262.68 161.24,-3440.793 1028.049,-433.134 685.825,-3624.627 1896.623,-1414.975 290.628,1304.064 1240.767,2584.737 1447.015,3730.199 -69.206,1079.098 148.96,2243.15 1189.136,2571.552 550.012,458.726 1952.191,796.646 1801.016,1898.171 1365.535,-215.824 921.298,1362.034 2266.035,816.885 9857.674,956.584 20506.363,1429.8 29887.153,2398.071 -636.6,1416.293 -1120.95,2922.114 -1608.26,4083.166 -76.32,1293.313 -438.88,2584.845 -739.01,4052.159 823.88,345.966 -188.6,1411.893 386.04,1832.025 -278.85,1299.534 471.43,2601.073 -192.76,3602.033 513.77,293.382 353.47,1335.098 1028.93,802.575 -51.71,-891.451 1241.81,-1993.071 1511.1,-1864.58 -268.59,574.165 -426.51,985.841 -579.32,1382.932 -417.01,1363.034 2166.54,688.365 3215.99,2089.903 1625.8,1465.542 1003.78,-355.446 1704.37,-1093.013 578.78,-894.322 698.6,-237.354 1285.78,192.762 658.41,-1706.503 1059.9,394.545 1607.22,352.969 531.91,343.344 -23.64,2064.635 514.72,740.044 425.01,-684.693 112.34,1125.963 836.17,289.403 317.58,-155.57 1199.94,-806.542 931.78,321.961 553.29,-563.806 787.94,44.759 1672.33,128.682 1502.51,1659.306 52.11,-1746.362 1093.53,-900.768 630.27,492.606 644.61,606.679 1446.5,482.683 506.5,-357.362 1240.5,-500.223 1864.58,-868.727 362.84,-821.627 2437.26,-150.453 2219.1,-1093.011 225.39,408.11 221.32,987.175 1060.97,450.125 756.28,-257.204 -1256.13,337.176 -418.08,-578.29 -167.72,-749.04 -50.91,-1267.994 514.2,-1704.894 -787.48,-107.704 -1001.55,-897.137 -1028.93,-1511.097 -387.07,-793.55 541.83,-999.735 900.77,-1349.858 -1070.62,376.419 -792.67,-577.406 -674.93,-740.043 -357.38,-960.154 1560.27,-161.311 900.25,-610.848 -901.23,-249.079 -2275.64,-515.06 -2219.1,-1736.418 1023.61,-665.755 1551.07,-2054.625 1961.74,-2796.872 232.41,-492.743 1632.81,-882.04 1897.14,-1607.736 738.96,-216.909 451.79,-1526.521 0,-418.085 -1139.96,-103.756 -1463.23,-514.514 -2637.18,-450.124 -846.3,-915.077 -415.57,-1867.047 -1414.98,-2219.101 738.22,-722.011 319.3,-1666.932 -545.73,-1542.622 -371.55,-625.319 -371.16,-1244 -772.09,-1511.097 -729.15,-44.556 -666.43,-322.412 -288.88,-965.364 750.88,-632.672 68.79,-1478.853 674.93,-1896.623 -124.39,-849.864 1342.81,-521.259 1703.86,-1511.097 461.18,-895.325 -763.15,-1945.143 -1414.98,-1190.171 -652.75,-104.545 -1211.42,1047.979 -1543.13,32.043 -497.57,-652.049 -1024.76,-1386.24 -1157.62,-1574.664 -218.49,-269.519 -806.81,-933.205 -996.37,-1125.054 1410.05,-697.647 -1811.62,-608.337 -514.72,-1287.325 1163.88,-1062.351 774.21,-2923.561 1382.93,-4372.052 -612.23,-1593.022 195.8,-4204.732 -2187.06,-4276.961 -240.69,-1266.063 -1731.79,-76.829 -2474.91,-996.891 -1053.72,-57.626 -1014.65,1023.43 -1833.06,869.244 1652.45,-1102.589 3213.32,-3151.925 4983.93,-3634.076 834.27,-702.65 1456.72,-1646.603 1672.34,-2315.223 752.05,-818.214 1589.82,-1754.008 1542.62,-2828.915 398.98,-401.854 456.69,-1051.964 932.29,-1253.735 330.61,-661.902 714.62,-881.793 740.04,-1640.295 20.29,-740.339 751.71,-491.38 0,-1093.01 350.6,-725.104 1337.96,-697.033 1156.58,-1833.059 -526.18,-191.169 713.68,-752.464 708.01,-1349.858 512.68,-935.604 79.3,-1283.795 -160.72,-1704.893 1240.84,0.386 620.04,-1640.665 836.16,-2057.345 45.34,-300.307 475.08,-2185.46 -96.12,-867.693 -123.96,-243.934 -238.98,307.922 0,-643.92 -483.02,514.823 -688.66,1200.095 -289.92,96.638 -5.72,-279.406 82.26,-976.579 -352.97,-192.761 83.51,129.692 -244.13,678.99 -226.35,256.844 -113.11,-139.644 -322.15,-30.926 -352.97,-96.123 48.51,295.529 -474.08,146.749 -289.92,-224.804 -138.7,-99.602 487.35,-783.786 -224.8,-321.961 -70.25,370.986 -152.16,64.564 -739.02,354.001 387.08,-304.662 141.14,-1266.53 32.04,-642.886 -160.28,-73.817 -326.11,541.646 -482.16,-65.117 -99.59,521.626 -409.03,127.724 -321.96,-160.206 22.79,-929.865 -465.82,1087.475 -579.32,-64.598 192.44,-431.547 -484.97,-326.116 -417.57,32.558 -146.38,-361.812 23.75,9.259 -289.4,-578.806 -416.83,429.648 -147.17,608.915 -354.01,0 -306.29,380.269 -169,-324.245 -481.64,-224.804 -191.78,-472.356 -715.27,580.354 -740.05,-193.28 -322.85,466.847 -19.64,1231.974 -450.13,257.363 -231.07,-713.989 -448.94,897.553 -514.2,-257.363 -393.74,-489.917 -535.78,304.58 -610.85,-32.04 -140.84,-424.829 -500.37,1142.786 -321.96,32.04 -469.91,-541.789 -467.89,1278.366 -1237.8,200.689 -2434.79,207.886 -735.22,-1622.03 -1913.07,-1872.508 -2046.68,148.627 -4439.31,-821.853 -5368.95,-2861.988 -501.72,-226.87 -2446.72,845.762 -1897.14,-1125.054 -706.62,-1359.01 947.83,-2135.642 706.98,-3698.156 640.5,-1644.442 -836.52,-2271.137 -1801.02,-2732.791 -76.08,-1224.699 -1375.97,-1816.788 -1929.18,-1382.933 -290.24,-561.696 -458.07,-1707.786 -739.01,-1639.261 -480.27,-2046.219 -1536.08,-4121.9914 -1125.57,-6559.6273 -620.86,-640.9608 -949.5,-2747.2523 -2282.15,-2765.3486 -89.63,2236.7764 -2047.79,2917.7882 -2637.19,4727.087 -872.97,1153.6849 -1152.05,1588.4499 -1414.97,2701.2669 -682.37,1392.262 -780.15,2494.346 -2089.9,3118.833 -246.09,735.05 -1715.194,188.294 -2024.791,256.845 554.431,-709.546 -718.27,-725.394 -965.367,-289.919 -1004.211,89.058 -1085.712,-511.228 -1479.054,-482.167 -562.907,466.295 -1211.526,1039.866 -3021.677,740.045 -1514.275,-922.331 -2331.758,-2189.122 -3987.042,-1479.055 -1012.002,712.145 -2232.847,527.256 -3280.074,-64.599 -161.113,387.583 -185.284,1021.37 -578.806,867.692 -427.806,775.985 919.08,882.031 835.653,1768.975 192.986,921.296 -899.259,726.916 -1510.582,450.125 -834.615,-393.78 -2144.73,-156.229 -2733.308,96.123 -552.139,-74.871 -1229.516,-435.521 -1447.012,-642.888 -744.626,446.831 -1399.472,-155.335 -1574.664,996.89 -462.941,858.051 -1126.384,288.386 -1672.335,481.649 -494.344,294.777 -1058.52,84.183 -964.847,997.407 -633.753,42.673 -1766.627,-951.276 -1801.017,160.722 -1072.567,-245.135 -2.794,1287.962 -900.251,932.291 -635.867,-423.546 -1184.625,1118.231 -1479.055,96.64 -562.15,-524.332 -1950.231,-381.996 -2218.585,-1285.776 -371.865,-156.091 -867.185,-1190.348 -1543.137,-1222.211 347.86,-446.092 -652.229,-525.86 -224.805,-1253.735 196.572,-968.416 -179.979,-1333.701 -836.166,-1801.017 -128.806,-926.535 -767.13,-2515.201 -32.043,-3504.359 161.275,-783.5662 770.226,-1711.5401 256.845,-2282.6658 624.361,-348.8094 1193.613,-941.7411 1254.253,-1382.9327 728.811,-526.0194 -266.362,-536.2839 -225.32,-1382.4158 -871.009,-347.6021 298.865,-1630.0465 -996.891,-1479.5726 -173.025,-320.0301 -1977.841,-79.7755 -1189.135,-706.9701 604.389,-1048.3504 858.477,-2720.96327 -417.569,-3151.39133 15.389,-66.32453 -20.8,-152.82168 -97.155,-160.722 z M 127137.67,29191.455 c 106.28,-33.339 -44.01,-59.124 0,0 z m 2733.31,868.209 c -40.71,133.323 85.08,30.527 0,0 z m 642.89,513.691 c -125.58,49.692 128.12,48.977 0,0 z m -3953.97,15112.002 c -109.69,34.413 45.44,61.029 0,0 z M 24375.856,79671.598 c -78.916,45.961 91.594,120.339 0,0 z M 16305.648,72630.32 c -25.144,-58.269 -56.153,41.5 0,0 z m -26.873,-13.436 c 146.785,-171.223 -146.677,-31.116 0,0 z M 68297.92,6265.5739 c 124.236,45.9894 -6.612,116.3685 0,0 z m 55753.99,22828.7241 c -116.73,133.698 65.82,64.48 0,0 z m 3793.77,193.28 c 22.87,177.558 224.05,-23.358 0,0 z m 96.12,97.158 -32.04,31.524 z m 1929.18,545.731 c -16.54,98.401 98.4,-16.54 0,0 z m 932.81,515.239 c -355.05,455.702 173.12,208.86 0,0 z m 964.33,32.043 c -16.27,96.816 96.82,-16.276 0,0 z m -546.25,31.524 c -77.38,95.636 92.54,80.628 0,0 z m -257.88,225.32 c -142.88,248.557 94.79,56.904 0,0 z m -320.92,64.083 c -17.24,100.65 99.3,-16.368 0,0 z m 1671.82,289.919 c 88.7,492.928 253.81,-18.149 0,0 z"
     id="Acre"
     inkscape:connector-curvature="0" />
  <path
     style="fill:#004846;fill-opacity:1;stroke:none;stroke-width:280"
     d="m 132797.05,31023.48 c -119.41,507.211 -960.64,717.201 -611.36,1576.212 -317.13,607.142 163.63,1765.664 -963.82,1928.663 1018.31,166.445 114.23,2347.068 -450.12,2412.381 -229.94,719.548 -65.38,543.647 0,1317.818 -654.07,328.867 -1534.14,877.308 -868.73,1382.932 50.27,102.973 -436.5,480.36 -352.97,900.248 -229.77,872.062 -396.48,907.153 -868.2,1671.819 -482.47,229.099 -625.74,866.048 -900.77,1606.705 79.97,1279.977 -1576.28,1728.535 -1607.22,2830.462 -582.92,442.33 -989.23,1980.554 -2025.82,1801.017 -1147.52,953.02 -4185.29,3235.28 -4083.17,3375.68 589.84,144.447 1119.95,-1345.922 2121.95,-354.001 845.14,186.572 1676.4,-170.308 2056.82,739.009 2240.21,221.436 1331.79,2815.438 1962.26,4373.087 -668.45,1368.405 -211.97,3203.988 -1382.93,4211.846 -902.69,270.723 1237.69,561.179 836.16,740.044 -191.62,841.984 -421.03,406.714 128.69,1157.095 425.75,121.757 419.26,592.846 674.92,643.921 282.58,466.315 880.83,1385.726 1576.22,1961.222 472.07,-514.998 1357.02,-1065.4 2250.11,-515.239 649.66,985.965 -284,2059.578 -1286.3,2057.861 -397.77,880.338 -660.24,1184.005 -610.84,2315.223 -654.62,399.708 -906.95,1281.729 -64.09,1126.088 433.58,307.499 429.04,890.12 804.13,1543.137 975.7,-116.425 1155.17,867.616 578.81,1639.779 1154.8,89.844 377.4,1884.039 1735.9,2153.984 1123.21,-196.305 1363.53,712.541 2572.07,224.804 259.8,-864.309 188.17,867.32 -481.65,804.126 -477.98,905.088 -2102.72,1025.596 -1962.26,2057.863 -533.41,740.793 -1224.55,1848.652 -1703.86,2476.461 253.17,1235.171 1761.75,1047.257 2475.95,1574.662 -828.19,-306.845 -1488.04,220.296 -1125.06,674.931 -1001.44,782.086 1835.72,433.27 -32.04,868.209 -557.94,875.041 -143.28,1742.263 225.32,2219.098 589.63,564.24 647.84,252.36 31.53,899.733 216.89,566.143 -660.57,2153.193 772.08,1576.215 -944.03,464.683 -1239.49,1404.11 -740.04,2089.901 1183.31,-756.888 1141.6,-36.136 129.2,418.084 92.47,505.595 311.15,799.041 0,1317.818 -281.88,311.404 279.23,1495.473 -65.12,1961.221 684.93,431.164 1512.42,624.023 1512.13,1512.13 -817.23,-11.463 145.61,946.217 -419.12,1349.86 -34,680.805 31.92,994.432 225.84,1703.859 -693.41,700.662 -674.85,1375.442 32.04,642.889 931.67,-127.703 1472.96,-535.119 2058.38,-1125.056 981.22,121.64 1139.61,-1128.467 2218.07,-1060.971 691.36,-503.337 1041.68,-851.991 1414.97,-1189.654 578,-536.928 2355.91,-1448.981 3118.83,-1028.93 781.59,187.236 2084.82,-177.407 1060.98,1607.736 -124.53,454.731 1526.89,780.5 1833.05,964.85 674.47,-996.29 2594.86,-701.021 3149.85,64.083 1082.2,525.847 1798.94,1365.347 2927.1,1447.014 454.79,184.118 1252.39,602.401 1961.22,-32.042 1713.27,422.803 1780.81,2940.173 2764.83,3118.313 776.29,276.9 1222.31,-653.21 1833.06,-320.92 283.43,5.23 988.87,69.7 1317.82,642.89 460.3,-324.57 1035.34,152.49 1608.25,160.72 350,421.12 690.64,428.31 1028.93,771.05 902.58,110.18 541.63,1392.84 -129.2,1768.98 -177.55,603 -737.74,484.6 -706.97,1093.01 -912.59,-299.11 -708.59,1272.61 -450.12,1350.89 -311.19,339.17 -1583.47,-88.98 -1382.93,1093.01 103.3,1074.28 -620.64,1449.42 354,2090.42 394.12,647.14 1091.03,718.58 1445.98,1671.82 -1271.94,808.03 2372.01,2054.36 2443.9,2283.18 199.35,-1196.34 974.45,-1676.35 1897.14,-2380.34 1113.6,-919.62 -350.05,-2845.41 515.24,-4147.76 179.67,-1419.61 428.53,-3006.39 963.82,-4019.08 954.11,-1899.94 -570.02,-3812.13 -288.89,-5948.269 -708.39,-1805.084 796.56,-4023.594 96.13,-5980.821 708.29,-326.978 213.43,-929.084 417.56,-1575.18 -1022.6,-716.391 1561.42,-1939.805 1608.26,-2153.983 969.6,794.193 2506.89,-1711.93 3214.95,-2765.867 2322.53,-3146.058 3156.77,-7939.69 7073.84,-9194.745 802.9,-1532.517 2089.94,-2718.345 3119.35,-4052.157 1101.32,-1243.029 2836.18,-3097.042 3150.87,-5015.973 533.11,-1186.895 960.5,-2507.292 1060.98,-3987.043 67.76,-1000.798 370.38,-3592.219 -32.05,-3987.042 -123.3,-131.5 -495.42,-2170.796 -804.12,-3150.874 -815.58,-1902.95 -534.62,-4206.984 -2314.71,-5916.225 -1907.46,-973.282 -4539.13,102.706 -6108.99,-578.805 -938.24,-761.508 -2167.65,-318.607 -2733.3,-1735.902 -1555.8,-342.005 -2133.44,-1709.305 -3536.92,-2604.108 -753.36,-819.486 -1143.27,-1786.593 -1993.78,-2121.943 -1959.79,-964.21 -2929.06,-2282.448 -4983.41,-3183.951 -1623.93,-1173.343 -2491.34,-1325.586 -4437.69,-1189.136 -1783.79,212.998 -3552.92,738.485 -5336.9,224.804 -695.5,-940.026 -1705.74,-552.423 -2153.98,-835.65 -977.67,-26.505 -2564.23,172.554 -2829.95,-643.405 225.56,772.327 -113.04,-275.482 -386.04,0 -1054.86,-557.384 -2470.62,-1366.273 -3440.28,-1060.973 -583.07,-1563.21 -1944.02,1075.571 -2186.03,996.374 -196.2,-571.72 -897.25,-429.983 -192.76,-514.207 -128.77,-587.924 -1662.59,842.726 -1736.94,-160.721 377.81,-727.028 -617.49,-1300.86 -514.2,-2058.38 88.19,-428.485 -393.69,-355.896 -354,-513.691 272.19,-428.729 -395.47,79.157 -224.81,-289.403 215.4,-843.826 -365.24,-163.473 -257.36,-128.679 299.1,-424.104 -1514.98,548.989 -224.81,-193.28 13.56,-462.912 -478.39,260.044 -289.91,-417.568 787.1,-71.952 479.99,-364.816 354,-547.282 -461.51,157.393 -300.59,370.473 -418.09,321.962 -235.27,-171.599 -713.63,-84.206 -386.04,-642.889 540.68,-386.878 -20.56,-436.783 -352.97,64.083 -103.8,-310.259 -867.5,312.769 -740.04,-450.125 -179.47,992.977 -40.96,-280.713 -674.93,804.126 -182.4,-36.435 -492.15,1027.155 -578.81,513.692 -109.95,259.757 588.64,-1532.448 63.57,-867.693 -400.92,-195.754 658.11,-292.798 193.28,-932.292 -202.85,171.102 -312,573.961 -609.82,706.972 -205.45,939.695 -133.33,-606.031 159.69,-835.653 -568.95,694.988 -485.3,327.047 -513.69,160.724 -441.18,451.984 185.37,-790.518 -418.08,96.123 478.74,-966.065 -781.23,916.066 -450.13,65.114 -12.66,-77.429 -162.29,-559.434 64.09,-1126.087 -408.24,129.47 -615.89,1143.807 -514.21,160.721 -315.73,670.095 -387.41,350.541 -354,97.158 50.88,-205.42 -440.24,292.212 193.28,-451.16 -235.55,-552.301 -609.59,1379.691 -579.32,258.395 -407.06,301.345 232.02,-310.988 -160.73,-451.156 z m 932.81,996.888 c 115.88,-158.539 -121.73,-89.357 0,0 z m 450.13,515.241 c 691.76,202.647 61.43,-964.088 0,0 z m 96.12,-289.919 c -187.39,-120.68 42.02,243.027 0,0 z m 160.72,-128.165 c 303.27,-472.734 91.67,-1222.144 -32.04,-33.075 z m 0,192.764 c 33.34,106.262 59.12,-44.016 0,0 z m 386.04,96.123 c 41.81,41.042 59.44,-80.514 0,0 z m 38.24,-19.122 c 187.01,100.872 86.24,-296.402 0,0 z m 282.69,308.009 c 61.08,-168.691 -99.55,40.401 0,0 z m 129.2,-224.804 c -113.37,-85.862 -123.58,175.742 0,0 z m 481.65,224.804 c -14.61,-183.233 -80.91,42.939 0,0 z m 1238.23,113.176 c 44.58,-3.445 -19.66,-80.398 0,0 z m 6.72,-34.109 c 145.08,-294.285 -164.46,-241.032 0,0 z m 1553.47,854.256 c 44.02,-59.851 -108.7,-32.815 0,0 z m 352.97,64.083 c 100.65,17.241 -16.37,-99.311 0,0 z m -482.17,1028.931 c -106.26,33.336 44.02,59.118 0,0 z m 900.25,64.082 c 433.4,-276.924 -159.47,-306.657 0,0 z m 2443.91,2925.554 c 87.91,36.34 -36,-86.738 0,0 z m 321.96,-31.524 c 104.31,-87.145 -19.45,-85.865 0,0 z m 10416.95,1510.579 c 32.82,108.696 59.86,-44.016 0,0 z m 13246.91,58905.386 c 83.04,45.088 16.9,-185.659 0,0 z m -4918.82,5626.817 c -59.12,-44.02 -33.34,106.27 0,0 z m -19796.2,-8209.738 c -39.51,14.007 28.27,19.585 0,0 z m 5.69,10.851 c 8.45,92.834 41.53,-22.544 0,0 z M 128457.04,67871.71 c -49.28,-125.202 -49.28,125.197 0,0 z m 5207.7,-36526.271 c -295,266.444 270.26,212.127 0,0 z m -64.08,193.28 v 31.524 z m 129.2,160.722 c -148.54,361.664 237.11,114.62 0,0 z m 546.25,0 c -289.19,-10.283 229.87,690.457 0,0 z m 578.8,0 c -506.8,444.649 454.43,257.317 0,0 z m -1639.77,256.846 c 78.49,-6.9 -98.19,191.36 0,0 z m 1189.65,32.041 c -16.54,98.401 98.4,-16.54 0,0 z m -996.89,32.04 c -16.54,98.406 98.4,-16.54 0,0 z m 192.76,64.082 c -48.95,138.35 -123.92,222.915 0,0 z m 1222.21,0 c -118.73,85.365 119.57,-7.49 0,0 z m -1036.16,4.652 c 180.3,43.971 -229.21,100.618 0,0 z m -378.81,28.423 c 72.93,139.604 -103.15,15.106 0,0 z m 224.8,0 c 64.42,-5.239 -37.7,75.773 0,0 z m 4019.09,32.043 c 194.83,321.395 -510.37,752.781 193.28,450.124 -126.62,-652.192 602.7,247.329 96.64,-450.124 -223.8,186.89 65.89,62.445 -289.92,0 z m -192.77,320.927 c 651.47,119.404 -449.13,-303.416 0,0 z m -3794.28,-160.206 c 133.19,110.35 23,195.691 0,0 z m 3602.04,64.083 c -123.56,119.915 33.71,126.832 0,0 z m -2507.99,32.04 c 88.03,-36.464 -36.46,88.031 0,0 z m 2507.99,64.083 c -70.93,82.723 161.84,512.386 0,0 z m -160.72,129.197 c -293.06,582.254 170.59,22.835 0,0 z m -3166.9,16.019 c 60.83,26.028 -62.01,25.438 0,0 z m 1622.72,112.663 c -122.49,172.562 144.01,31.066 0,0 z m 1833.06,0 c 122.31,174.686 145.75,-28.386 0,0 z m -288.88,96.122 c -113.86,45.04 86.52,279.907 0,0 z m 0,129.198 c 52.92,81.289 134.32,-144.857 0,0 z m 32.04,32.04 c -35.98,68.896 51.3,6.969 0,0 z m 16.02,15.505 c 25.44,62.001 26.02,-60.836 0,0 z m -1463.04,-144.703 c 202.79,-14.222 10.92,114.518 0,0 z m -96.12,97.158 c 93.05,74.526 -84.69,88.619 0,0 z m 1479.06,32.04 c -145.24,186.03 231.71,145.541 0,0 z m 1574.66,31.524 c -289.28,126.488 84.93,871.688 0,0 z m -160.72,354.002 c 162.02,-642.103 -286.71,467.646 0,0 z m -160.21,160.205 c -109.28,-10.703 130.48,116.642 0,0 z m -2813.93,-417.566 c 123.34,128.192 4.04,43.513 0,0 z m 1527.12,128.682 c 87.3,96.853 -141.26,80.178 0,0 z m -1286.29,128.679 c 26.29,96.916 -91.31,120.082 0,0 z m -95.61,32.042 c 63.09,110.472 -158.81,347.503 0,0 z m 3053.72,0 c -277.83,332.273 290.12,125.48 0,0 z m -1767.94,32.04 c 124.5,47.842 -124.5,47.845 0,0 z m 1608.25,96.123 c -109.69,34.414 45.44,61.029 0,0 z m 95.61,129.197 c -105.06,33.596 44.02,58.76 0,0 z m -55.82,98.192 c 226.28,38.216 -65.83,121.593 0,0 z m -2773.1,30.49 c -35.17,132.38 -99.86,22.02 0,0 z m 2990.15,225.32 c -268.74,59.045 93.5,196.794 0,0 z m -129.19,95.607 c -96.57,211.156 283.34,21.766 0,0 z m 674.93,450.124 c -105.06,33.596 44.01,58.759 0,0 z m -31.53,32.043 c -99.3,-16.368 17.24,100.65 0,0 z m -96.12,65.115 c -24.6,239.619 126.22,94.366 0,0 z m 256.84,32.042 c -61.38,670.113 -47.81,-57.584 0,0 z m -836.16,64.081 c 113.76,-22.748 -120.92,82.456 0,0 z m 1447.01,964.85 c -164.6,171.369 139.73,83.586 0,0 z m 32.04,224.804 c -490.32,93.821 2.73,165.513 0,0 z m -160.72,193.28 c -128.4,180.037 143.24,108.739 0,0 z m 33.07,127.647 c -109.69,34.414 45.44,61.029 0,0 z m 2218.07,1319.368 c -103.13,15.103 72.93,139.599 0,0 z m -32.04,32.04 c -81.86,-43.653 -15.17,184.908 0,0 z m 8472.27,1447.015 c 41.53,-22.544 8.46,92.826 0,0 z"
     id="Alagoas"
     inkscape:connector-curvature="0" />
  <path
     style="fill:#7d7d7d;fill-opacity:1;stroke:none;stroke-width:280"
     d="m 75275.115,61794.249 c -254.418,1006.669 -843.31,1917.484 -1125.053,2733.305 991.738,1373.369 -446.029,2662.915 -193.28,3955.002 1624.615,479.921 -4853.063,641.714 -3078.631,418.085 -3997.082,-162.402 -8384.779,264.065 -12162.052,-257.363 -676.482,-947.387 -1027.862,950.858 -1704.375,482.167 -996.457,-68.094 -626.603,-1564.887 -1447.018,-1190.17 -229.207,308.509 -217.646,-1824.566 -1125.053,-1156.578 -569.78,-893.552 -1220.268,-2539.845 -3172.023,-1929.181 -1785.643,-488.439 -2322.83,545.112 -2776.757,1735.901 -1291.313,-674.354 -425.726,1365.506 -931.773,1254.251 -372.733,670.817 -882.375,964.403 -900.252,1833.059 -700.771,182.68 -1205.186,-261.086 -2057.86,256.844 -962.758,-410.485 -1665.146,211.326 -1608.255,1253.735 -352.113,580.732 -1271.648,1340.205 -1221.692,32.04 -854.132,-110.382 -1233.392,498.114 -1222.213,868.209 -641.37,-433.558 -1083.874,221.234 -1575.178,642.888 -424.421,-1236.446 -2449.424,-785.326 -2829.946,-739.011 66.522,1382.609 -3451.964,1625.898 -802.579,2251.143 728.206,-54.295 1661.196,-488.38 2281.633,-483.201 602.496,20.614 823.974,-212.236 1319.368,-192.762 13.455,160.939 690.4,-199.641 545.731,192.762 429.156,325.197 891.507,73.909 1158.128,-642.886 1124.522,574.329 434.804,1906.664 642.889,2894.029 -1155.709,1347.129 100.309,2512.248 193.28,3633.041 -277.541,553.881 -607.848,1107.098 -129.197,1607.736 -546.66,726.488 936.149,1059.174 192.761,1865.099 721.241,45.582 802.875,94.485 1126.088,868.207 -426.332,867.851 1237.79,464.814 995.856,996.89 469.778,449.857 296.271,-349.755 643.407,482.167 1184.251,-116.563 530.146,1385.623 1801.016,1349.857 482.863,50.697 797.972,134.122 1414.972,161.24 618.131,-141.109 1540.64,-709.119 2314.708,289.919 430.819,301.839 1374.703,854.937 1672.335,256.845 422.773,515.099 805.033,1109.01 1413.94,1575.18 373.674,599.209 864.29,11.052 1062.005,386.042 800.115,164.738 1028.33,674.783 1799.984,610.848 536.516,-518.861 787.92,1042.502 1350.892,1221.692 534.92,789.581 739.242,742.999 1607.221,579.325 287.728,96.855 1376.613,90.545 1800.497,-65.118 514.663,373.849 1084.266,-314.18 1254.253,192.764 876.817,753.348 2207.888,1026.055 2315.224,1383.448 285.095,421.122 563.197,913.627 0,1799.985 426.724,1254.716 947.368,1554.393 1115.594,3683.878 -2523.419,834.586 1233.064,3313.228 394.985,6444.708 2744.773,-39.36 6655.63,344.67 8778.211,128.16 -13.859,960.17 -1052.927,2427.07 -674.929,3248.03 177.746,904.81 894.822,2156.64 1960.706,2475.95 240.339,491.18 1556.574,-234.24 1222.211,610.85 404.098,690.77 588.339,2398.2 1575.177,3151.39 -1992.664,1209.17 -427.646,3738.94 -1983.442,4858.75 -2140.892,1487.7 -986.503,4223.06 -395.861,3885.87 -726.549,420.7 -1356.779,1025.43 -610.849,1222.21 382.578,618.44 291.274,1635.69 642.889,2089.9 865.401,-422.44 -349.546,691.82 256.844,418.09 -144.343,582.61 159.11,554.41 322.478,996.88 -345.019,878.69 -72.833,1422.08 -386.042,2089.91 -481.596,912.21 403.219,1409.38 -289.403,2090.42 440.244,385.35 -582.645,1443.74 514.207,1381.9 667.996,-39.06 1046.328,-286.01 1608.252,192.76 1071.885,566.65 2025.268,49.5 3053.719,515.24 551.828,20.58 805.047,-374.8 1190.171,-161.24 635.419,-789.77 980.049,-1106.35 1671.816,-32.04 704.535,477.77 2656.864,-151.69 2507.988,1286.29 1144.21,939.87 52.628,1992.27 674.929,2958.12 820.155,639.28 -234.769,2086.54 674.928,2829.94 140.218,557.25 -16.677,1771.07 933.327,1511.1 1306.008,139.03 1913.181,-697.59 3053.716,-772.09 691.328,108.68 2176.691,2175.24 2541.062,-32.04 48.451,-1304.29 724.229,-2063.7 1735.899,-2669.22 117.262,-1497.96 1200.972,-2428.82 2540.028,-2796.88 943.294,-1801.29 3781.113,-1929.22 4469.213,-4052.15 743.57,-507.2 873.67,-2413.29 836.16,-1832.03 1401.32,-90.82 498.92,-1805.37 1350.89,-2218.58 1147.09,-596.41 348.69,-2220.9 1735.91,-2926.07 540.62,-854.63 2442.77,-850.83 1833.06,-2379.31 -54.09,-778.52 -126.88,-1663.09 418.08,-2057.86 20.02,-564.56 528.78,-87.69 481.65,-1125.05 523.91,-878.16 1611.58,-910.25 1736.42,-1929.18 609.86,-1610.3 2329.1,-1388.01 3504.87,-1511.62 707.22,-246.15 1027.26,-920.8 1639.78,160.72 677.12,-900.84 1021,-1191.26 1833.06,-1381.89 549.24,-333.31 1267.3,154.78 2056.83,-129.2 821.98,463.98 1409.43,-202.84 2315.22,450.12 497.31,480.59 987.35,151.36 1318.85,-32.04 668.61,-83.61 774.57,-1035.24 1189.13,-932.81 575.73,-418.6 1510.32,-781.1 868.21,-1639.26 -204.67,-557.29 1154.4,-1947.52 -514.2,-1736.93 -701.12,-582.1 -99.42,-915.38 193.28,-1189.14 268.5,-762.14 1173.51,-964.47 1381.9,-1543.65 -513.51,-543.4 -451.3,-1930.17 -1350.38,-2025.3 -470.55,-474.87 723.76,-1750.5 386.04,-2218.59 79.5,-377.14 830.15,-876.3 1190.17,-739.01 2186.76,101.8 900.74,-1497.55 706.97,-2316.26 804.02,-855.39 -204.01,-1066.39 96.13,-1929.178 163.15,-793.722 2523.78,700.128 1736.93,-770.535 -304.29,-995.515 481.55,-1359.481 1060.97,-451.159 290.95,1116.403 1816.17,212.262 1479.06,-836.167 361.27,-609.038 -391.4,-1129.075 450.12,-1445.982 -315.86,-971.831 -1976.61,-874.327 -1414.97,-1897.14 -302.59,-866.425 -281.63,-991.206 0,-1704.893 270.1,-278.941 -622.29,-1087.473 482.68,-1317.817 939.65,-1070.512 -1461.21,577.694 -964.85,-674.929 -176.5,-662.509 446.07,-1136.169 931.78,-1447.015 -945.07,488.615 -1171.76,172.539 -1381.9,-418.084 243.49,990.037 -2039,514.95 -2219.1,1060.973 -936.85,600.206 -1378.72,736.916 -2250.63,932.807 -564.52,413.497 -678.82,-765.323 -1413.94,-578.806 -153.76,436.943 500.05,2405.714 -901.28,931.773 -799.46,-98.229 -942.63,-545.591 -1511.1,-95.606 283.87,-932.639 -402.08,-623.031 -772.08,-354.002 -471.38,488.539 -746.2,45.929 -802.58,-450.125 -297.07,523.132 -586.65,1199.154 -386.04,192.765 -109.64,-851.312 -918.62,-1080.215 -1350.89,-1801.017 -634.14,1421.013 -1004.41,-117.319 -1446.5,129.198 -662.97,491.676 -835.64,1400.136 -964.85,2153.983 -1423.02,-1391.915 -3712.39,-1567.814 -4468.69,-2315.223 202.63,-785.29 373.9,-1065.932 739.01,-1800.498 -306.17,-130.449 -1314.23,796.685 -1350.37,1286.809 -254.8,309.531 -257.9,1121.338 -772.09,513.689 -243.47,-425.221 -553.88,-1168.201 -128.68,-1864.581 -313.63,-1150.521 21.57,-2150.856 -352.97,-3182.916 450.6,-894.209 -514.78,-1718.346 224.8,-2829.431 299.22,-1560.305 261.7,-2861.479 1125.06,-4179.804 -263.65,-1006.167 2063.19,-2764.734 -129.1,-2482.02 -9914.23,-611.354 -20414.262,-1443.467 -29965.707,-2245.069 -22.317,-1016.685 -1720.852,-364.67 -1414.975,-1511.097 -682.811,-882.725 -1510.275,-774.346 -2153.984,-1510.579 -803.205,-408.21 -559.522,-1861.517 -708.003,-2798.423 -1134.491,-1036.283 -773.306,-3064.316 -2153.986,-4019.082 z M 112926.96,86584.71 c -26.06,-97.888 -152.16,-66.318 0,0 z m 14210.71,22603.92 c -36.46,88.03 88.04,-36.46 0,0 z M 64310.878,93947.431 c -45.437,60.299 107.28,34.924 0,0 z m -8938.933,-3857.843 c -59.119,-44.016 -33.337,106.262 0,0 z"
     id="Distrito Federal"
     inkscape:connector-curvature="0" />
  <path
     style="fill:#ff0000;stroke:none;stroke-width:280"
     d="m 141188.7,95394.445 c -1161.1,252.214 -2414.64,933.869 -2894.02,1479.058 -557.36,790.314 -2070.96,1039.223 -2828.92,1930.214 -770.5,-86.024 -957.93,819.451 -1767.94,931.773 -617.09,-94.845 -1161.11,912.24 -1512.13,418.08 835.7,-408.761 831.83,-2007.652 -192.77,-1414.968 -703.64,707.625 -957.77,-1488.4 -1832.02,-803.094 24.4,713.134 505.69,2242.972 -996.89,1381.9 -1307.27,-226.728 -617.82,1336.222 -450.12,1672.332 -1344.93,680.21 1468.64,2434.99 -515.24,2636.67 -912.22,105.15 -1137.04,297.14 -1638.75,642.89 -215.03,553.3 -105.95,1266.56 -708,2250.11 500.46,596.17 1141.44,601.11 1222.21,1736.93 458.24,627.27 206.23,906.1 -418.08,1318.33 -433.36,118.68 -614.56,1119.13 -1093.02,1093.02 -291.76,585.85 205.41,883.49 996.89,964.84 257.33,938.47 -723.67,1572.16 96.13,2378.79 -547.58,647.83 -1247.77,659.84 -1640.3,1222.22 -165.06,542.54 -916.38,493.3 -1221.69,899.73 -474.47,253.18 -1476,-953.03 -1961.23,-481.65 -851.36,-271.02 -1882.96,-2.06 -2732.79,-288.89 -555.56,248.36 -1302.21,362.1 -1479.05,642.89 -560.66,674.78 -1118.52,1325.98 -1543.14,192.76 -512.7,635.65 -1397.07,761.8 -2443.9,578.29 -1058.69,210.74 -2225.41,1112.4 -2315.23,2282.67 -731.49,289.36 -1892.91,1196.73 -1510.58,2058.38 -833.74,-304.78 -287.49,620.73 -965.36,1157.61 472.93,1107.01 261.62,3049.26 -1447.02,3054.23 -578.94,919.35 -1667.7,1642.7 -1285.77,2861.99 -880.88,436.61 -1314.46,1043.94 -1158.13,1992.75 -185.48,887.11 -1560.73,586.71 -867.69,1544.17 -1142.07,1309.27 -1906.01,2940.72 -3729.17,3633.04 -719.879,87.52 -1932.667,1641.48 -642.887,772.09 1296.687,299.45 2349.407,38.92 3535.887,320.92 291.82,293.99 482.26,-1211.25 1350.89,-354 1055.94,699.76 2082.31,433.15 3312.11,578.81 839.88,527.02 2013.19,556.73 2442.87,1351.4 505.62,-587.13 1333.88,39.37 1801.02,-129.19 992.12,261.6 1992.98,-619.3 2121.94,578.8 1187.46,38.95 1381.1,1679.5 1479.06,1865.1 -442.8,768.58 505.27,1601.6 -64.08,2121.95 536.79,364.21 656.4,950.4 1222.21,1479.05 259.03,743.66 868.11,982.67 256.84,1671.82 -576.44,793.93 618.9,1045.72 1189.14,707.49 278.9,-81.06 1224.04,191.28 1736.93,96.64 157.3,-80.38 1227.82,206.63 482.17,900.25 -1.83,97.94 -222.27,1725.94 449.61,739.01 724.45,-136.34 746.44,370.93 1093.01,-128.17 288.99,595.63 339.89,1438.42 1029.45,1190.17 -898.94,914.08 997,-609.11 708,-1062 1453.47,-1610.65 3790.38,-2228.88 4661.97,-3729.16 1154.55,-586.92 2300.32,-1437.76 2764.84,-1253.74 247.19,414.81 867.36,-452.6 899.73,-772.09 1036.21,-548.03 2442.51,-253.87 3184.46,-32.04 254.73,-318.03 107.22,-1510.88 963.82,-1158.13 330.02,-574.72 612,-313.2 804.13,-514.2 -37.97,-264.86 876.38,-947.63 1156.58,-481.65 704.45,-348.31 1198,-42.23 1480.08,-515.24 -334.95,-553.55 -749.89,402.3 -546.76,-224.81 -286.71,-25.21 -322.17,56.73 -354,-386.04 8.79,-857.15 1506.76,-461.22 1414.97,-996.89 242,-76.27 622.78,-256.21 256.85,386.04 557.09,-270.84 841.32,345.35 1479.05,-352.97 339.43,-43.98 1134.22,-548.76 1511.1,31.53 450.15,497.5 1568.89,487.2 1833.06,128.16 -1002.6,-233.38 773.8,318.59 804.12,-256.84 69.38,-80.85 -1171.66,-955.8 95.61,-1125.06 1131.51,-592.21 -200.78,1091.33 161.24,1060.98 410,579.18 2758.46,-186.43 3890.92,64.08 1912.5,429.28 859.82,193 1639.77,-642.89 1030.62,-431.52 -802.81,-11.49 -64.59,-1350.37 869.79,-996.14 2540.15,-1699.23 4147.76,-2314.71 1323.9,-809.09 -648.93,-2650.53 547.28,-3504.88 331,-888.61 1013.99,-2907.33 1574.67,-2507.98 486.9,-116.2 609.54,-991.89 610.84,-804.13 551.23,136.69 970.93,-1974.84 1286.29,-1961.22 325.83,-1167.15 686.83,-2477.06 2025.82,-3086.79 1066.22,-1952.13 -161.78,-4485.22 547.29,-6397.88 -863.49,-759.13 -3325.49,-1540.19 -2412.38,-2444.42 -584.58,-1068.08 -1053.18,-943.23 -1735.91,-1928.66 -328.51,-386.83 104.73,-1252.89 128.17,-2155.02 83.11,-932.28 1848.27,-12.42 1158.13,-900.25 -569.2,-366.98 468.75,-1328.14 578.8,-1253.74 332.28,-651.19 1285.97,-1018.98 1286.3,-1961.22 399.94,-736.05 -1031.69,-659.7 -868.21,-1190.17 -526.71,166.95 -758.89,-682.66 -1576.21,-417.56 -493.54,-322.3 -911.99,-11.06 -1382.94,-706.98 -387.44,348.8 -900.94,-293.21 -1317.81,127.65 -930.03,635.46 -2042.74,341.86 -1897.14,-1060.97 -913.77,-958.29 -1851.67,-2110.168 -2894.03,-1543.136 -727.23,143.646 -847.24,-485.959 -1543.14,-321.962 -1084.45,-524.344 -2189.46,-1273.921 -3214.96,-1928.663 -697.16,-392.289 -2131.24,-40.624 -2507.98,578.806 -769.05,-759.637 -2532.65,-434.558 -1285.78,-2153.986 -7.88,-654.783 -1594.03,-273.088 -1962.26,-708.004 z m 16559.02,32281.865 c -106.27,33.34 44.02,59.12 0,0 z m -6108.99,10354.42 c 31.48,83.64 132.51,-40.14 0,0 z m -4886.77,63.57 c -59.12,-44.02 -33.34,106.27 0,0 z m -932.81,-546.76 c 388.44,217.97 -80.44,-277.68 0,0 z m 0,-128.17 c 1109.98,-118.38 -304.21,-502.13 0,0 z m 31.53,32.04 c 60.29,45.44 34.92,-107.27 0,0 z m -1574.67,1093.02 c -458.72,-144.68 -2139.67,-217.18 -1994.29,161.23 618.37,-135.49 1376.06,-347.64 1994.29,-161.23 z m -1511.09,-706.98 c -369.67,130.31 142.62,335.33 0,0 z m -1285.78,546.25 c -106.26,33.34 44.02,59.12 0,0 z m -418.08,64.6 c -60.3,-45.43 -34.93,107.28 0,0 z m -1994.3,803.09 c 287,245.45 242.14,-345.14 0,0 z m -64.08,129.2 c -36.47,88.04 88.03,-36.46 0,0 z m -7587.53,3858.88 c -83.24,115.82 8.23,101.59 0,0 z m 9629.37,-47715.827 c 41.53,-22.544 8.45,92.834 0,0 z m 18697.5,29903.077 h 32.04 z m -289.92,706.97 h 32.04 z m -160.21,354 h 32.04 z m 64.08,63.57 v 32.04 z m 32.05,0 v 32.04 z m -804.13,289.4 c 106.26,33.34 -44.02,59.12 0,0 z m -5434.06,8423.69 c -17.24,100.65 99.31,-16.37 0,0 z m -32.04,33.08 c -112.63,111.42 106.81,83.47 0,0 z m -6687.79,1703.86 c -36.47,88.03 88.04,-36.47 0,0 z m 0,32.04 c -72.93,139.61 103.14,15.1 0,0 z m -4051.13,900.25 c -36.46,88.03 88.04,-36.47 0,0 z m 482.17,32.04 c -16.54,98.4 98.4,-16.54 0,0 z m -418.08,65.11 h 32.04 z m 192.76,95.61 h 32.04 z m -63.57,32.04 c -214.96,216.46 123.39,74.81 0,0 z m 63.57,0 c -16.54,98.41 98.4,-16.54 0,0 z m -578.81,32.04 c -293.49,108.64 147.95,126.23 0,0 z m -352.97,129.2 v 32.04 z m 3921.93,32.04 c -16.37,99.31 100.65,-17.24 0,0 z m 354,0 h 32.04 z m 64.09,0 v 32.04 z m -4437.17,32.04 c -44.02,59.12 106.26,33.34 0,0 z m 3890.92,0 c -16.54,98.41 98.4,-16.54 0,0 z m -6142.06,96.64 c -36.71,88.29 90.63,-37.39 0,0 z m 0,32.05 c -97.28,-16.19 16.62,97.94 0,0 z m 226.35,-32.05 c -16.54,98.41 98.41,-16.54 0,0 z m 0,32.05 c -100.65,-17.25 16.37,99.3 0,0 z m 4950.86,-32.05 h 32.04 z m -5304.86,32.05 c -16.54,98.4 98.4,-16.54 0,0 z m 5304.86,0 v 32.04 z m -5368.94,32.04 c -16.54,98.4 98.4,-16.55 0,0 z m 6847.99,0 c -16.54,98.4 98.41,-16.55 0,0 z m -1735.9,64.08 h 32.04 z m -3182.91,33.07 c -330.16,186.64 -1022.74,764.74 -129.2,482.17 482.15,191.37 1134.92,-248.25 289.92,-322.48 92.98,4.23 -140.51,-159.64 -160.72,-159.69 z m -2121.95,96.13 v 32.04 z m 0,224.8 c -134.4,113.46 98,97.09 0,0 z m 0,129.2 h 31.53 z m 513.69,32.04 c -16.19,97.27 97.95,-16.63 0,0 z m -32.04,63.56 c -16.54,98.41 98.4,-16.54 0,0 z m 0,32.04 c -237.06,90.25 -141.62,188.42 0,0 z m -288.88,97.16 c -44.02,59.12 106.27,33.34 0,0 z m 352.97,192.76 v 32.05 z m -1575.18,418.09 v 32.04 z m -32.04,128.16 c 33.33,106.27 59.11,-44.01 0,0 z m -192.77,32.04 c -17.24,100.66 99.31,-16.36 0,0 z m 450.13,65.12 c -36.47,88.04 88.03,-36.47 0,0 z m 0,32.04 c -16.19,97.27 97.94,-16.62 0,0 z m -257.36,95.61 c -16.54,98.4 98.4,-16.54 0,0 z m 225.32,0 c 33.33,106.26 59.12,-44.02 0,0 z m -836.17,451.15 c -106.27,33.34 44.02,59.13 0,0 z m -97.16,64.09 c -326.03,166.19 200.96,186.14 0,0 z m -739.01,32.04 h 32.04 z m 868.21,64.08 h 32.04 z m -578.81,64.6 c -132.56,86.27 131.31,64.41 0,0 z m -739.01,96.12 v 32.04 z m 95.61,64.08 c -113.59,81.27 127.61,5.31 0,0 z m -192.77,610.85 c -423.73,627.49 -865.88,1243.16 129.2,965.37 787.46,459.09 -195.41,-451.39 288.89,-418.09 141.22,-273.04 -73.24,-436.7 -418.09,-547.28 z m 1447.02,129.2 c 30.75,207.1 115.4,-44.87 0,0 z m -3280.07,224.8 h 33.07 z m 2733.31,0 c -326.78,187.57 402.73,160.79 0,0 z m -2765.35,32.04 c -16.54,98.41 98.4,-16.54 0,0 z m 2347.26,64.09 c -45.43,61.03 109.7,34.41 0,0 z m -3762.24,65.11 v 32.04 z m 2348.3,128.17 c -16.89,99.52 98.86,-16.46 0,0 z m -1222.21,32.55 c -45.56,178.56 150.16,-55.49 0,0 z m 2186.03,289.41 v 32.04 z m 129.19,0 v 32.04 z m -7974.08,2217.55 h 32.04 z m 320.93,33.07 c -16.37,99.31 100.65,-17.24 0,0 z m 33.07,64.08 c -16.54,98.4 98.4,-16.54 0,0 z"
     id="Espírito Santo"
     inkscape:connector-curvature="0" />
  <path
     style="fill:#177bac;fill-opacity:1;stroke:none;stroke-width:280"
     d="m 103794.74,135843.68 c -248.82,1219.9 -1097.83,307.71 -2025.82,482.68 -683.89,97.77 -1812.228,-419.76 -2540.026,128.16 -670.245,524.4 -2956.315,1079.97 -2894.029,2764.83 -601.276,1135.4 -2002.033,1442.24 -1864.065,3055.27 -356.499,1092.09 -1803.223,1458.98 -932.807,2796.88 -529.583,1426.3 -609.875,3135.2 -1125.056,4469.2 -1172.048,924.98 447.172,2360.51 899.733,1254.77 739.604,180.26 494.701,-237.19 1093.013,-257.88 -350.178,551.82 671.198,240.94 740.046,450.13 616.715,263.68 453.035,1106.85 514.207,1543.65 50.485,462.09 1091.41,1025.48 772.086,1961.23 -275.932,790.61 -212.609,863.52 -321.961,1575.69 -149.913,422.49 365.284,795.3 257.879,1414.46 -557.959,390.35 -346.464,621.39 -772.087,1060.97 -476.293,-464.42 -1053.569,1090.48 -1607.736,514.72 -288.95,1138.49 -750.529,681.33 -1350.376,836.17 129.936,583.33 -742.84,-233.11 -835.65,513.69 137.741,-409.73 -1504.885,954.08 -900.249,129.2 -272.016,565.28 -597.497,1251.18 -1158.13,1125.05 559.239,553.39 -721.585,102.69 -931.773,642.89 -563.211,121.67 -1013.584,1384.89 -1576.212,901.28 -390.072,645.34 -927.807,585.14 -386.045,1349.86 -338.673,-125.66 -1000.481,-103.95 -1221.692,482.17 -301.503,552.89 -1993.328,2381.38 -1639.263,1800.5 -457.533,1103.97 -1615.962,1090.42 -1993.777,2476.46 -737.684,785.38 -1948.323,1897.82 -2894.03,2571.55 55.539,1186.55 -2390.935,1287.07 -804.129,1929.18 703.27,-78.83 1491.216,228.65 1865.099,-804.12 456.065,-554.39 2312.536,266.37 2411.865,836.16 661.98,700.82 1450.566,1118.22 2153.984,1865.1 318.628,410.26 913.113,863.25 611.364,1961.74 1110.263,-62.81 1498.958,-632.24 1896.624,-1157.61 885.54,553.57 1354.797,1248.25 1767.941,2025.82 688.294,566.39 1175.875,-247.41 1414.972,545.73 484.634,432.1 2298.734,218.2 2283.184,1383.45 886.757,1051.03 1803.136,1257.26 2283.184,1382.93 1246.685,642.71 1247.027,1266.58 1833.056,2507.99 795.752,546.47 1499.746,732.27 2442.87,1413.94 -1347.327,951.18 -791.907,920.32 -2121.943,2025.82 -171.054,1185.97 -405.797,3820.35 1285.777,2475.95 2788.962,-1415.45 3587.712,-4309.96 4823.212,-6849.03 2569.64,-2242.88 6650.47,-4259.82 8456.77,-7844.89 1751.17,-3819.04 3743.29,-8374.92 7716.2,-10096.03 477.32,-714.49 794.58,-2051.42 932.81,-2732.79 181.78,-711.88 154.11,-1378.43 -64.08,-2026.34 572.16,137.86 -365.48,-959.56 321.44,-1028.93 617.22,-286.76 -884.38,-720.18 224.81,-1028.93 225.78,280.13 266.18,-635.39 -320.93,-224.8 117.23,-773.91 -360.61,-634.92 -193.28,-1543.14 243.49,-179.11 -808.74,-805.34 32.04,-1704.89 652.37,-1112.39 584.93,-1293.88 32.04,-2056.83 99.8,-1448.45 1467.68,-2359.99 2026.34,-3183.44 641.03,-854.05 984.67,-794.47 -32.04,-996.88 182.35,-556.37 -352.5,-1412.49 -675.97,-708.01 -146.91,-838.61 -1273.74,794.18 -1221.17,-320.93 94.48,-602.39 753.38,-1483.85 -257.88,-1511.09 -302.59,123.78 -1556.49,-168.45 -1865.1,-96.64 -732.9,447.06 -1849.78,-114.37 -1060.97,-900.25 500.64,-647.89 -391.99,-940.13 -482.17,-1735.9 -625.24,-380.22 -831.63,-1064.1 -1060.97,-1350.9 406.48,-636.38 -478.28,-1578.68 32.04,-2090.41 -271.03,-344.66 -381.76,-1787.79 -1575.18,-1767.95 -11.3,-1380.97 -1408.61,-64.69 -2347.78,-708 -433.1,365.19 -1212.6,-267.34 -1735.9,193.28 -453.68,-984.03 -2093.14,-1118.2 -3182.92,-1447.01 -967.15,441.96 -2062.61,-373.19 -3151.39,-674.93 z m -8005.606,22442.68 c -10.473,-146.54 -148.781,-10.37 0,0 z m -161.24,-5979.79 c -139.599,-72.93 -15.104,103.13 0,0 z m 25691.236,7298.12 c -682.33,278.44 -457.73,668.61 -644.44,1125.57 -50.49,291.82 -277.13,1561.89 354,739.01 -392.29,-469.04 989.79,-1437.25 290.44,-1864.58 z m -708.01,1543.66 c -98.41,-16.55 16.54,98.4 0,0 z m 642.89,-1382.94 c 19.53,-36.96 -103.56,-132.84 0,0 z m -674.93,386.05 v 32.04 z"
     id="Paraná"
     inkscape:connector-curvature="0" />
</svg>
